<?xml version="1.0" encoding="utf-8"?>
<!-- Svg Vector Icons : http://www.onlinewebfonts.com/icon -->
<!DOCTYPE svg PUBLIC "-//W3C//DTD SVG 1.1//EN" "http://www.w3.org/Graphics/SVG/1.1/DTD/svg11.dtd">
<svg version="1.1" xmlns="http://www.w3.org/2000/svg" xmlns:xlink="http://www.w3.org/1999/xlink" x="0px" y="0px" viewBox="0 0 1000 1000" enable-background="new 0 0 1000 1000" xml:space="preserve">
<metadata> Svg Vector Icons : http://www.onlinewebfonts.com/icon </metadata>
<g><path d="M690.9,528.6c63.3-54,103.5-134.4,103.5-224.1C794.4,141.8,662.6,10,500,10S205.6,141.8,205.6,304.4c0,89.8,40.2,170.1,103.5,224.1C160.8,599.8,58.4,751.4,58.4,926.9c0,34.8,28.2,63.1,63.1,63.1c34.8,0,63.1-28.2,63.1-63.1c0-174.2,141.2-315.5,315.5-315.5c174.2,0,315.4,141.2,315.4,315.5c0,34.8,28.2,63.1,63.1,63.1s63.1-28.2,63.1-63.1C941.6,751.4,839.2,599.8,690.9,528.6z M500,472.7c-92.9,0-168.2-75.3-168.2-168.2c0-92.9,75.3-168.2,168.2-168.2c92.9,0,168.2,75.3,168.2,168.2S592.9,472.7,500,472.7z"/></g>
</svg>